<?xml version="1.0" encoding="utf-8"?>
<!-- Generator: Adobe Illustrator 19.0.0, SVG Export Plug-In . SVG Version: 6.00 Build 0)  -->
<svg version="1.1" id="Layer_1" xmlns="http://www.w3.org/2000/svg" xmlns:xlink="http://www.w3.org/1999/xlink" x="0px" y="0px"
	 viewBox="-205 297 334 239.5" style="enable-background:new -205 297 334 239.5;" xml:space="preserve">
<style type="text/css">
	.st0{display:none;}
	.st1{display:inline;}
</style>
<g transform="translate(0.000000,200.000000) scale(0.100000,-0.100000)" class="st0">
	<path class="st1" d="M-355-1640c-27-6-65-19-83-29c-38-20-97-26-152-16c-51,9-142-5-192-31c-57-29-116-93-147-158
		c-22-47-26-70-26-146c0-109,14-142,91-217s87-101,89-236c2-88,6-117,18-129c13-14,53-16,289-15c168,0,283,4,300,10
		c35,14,48,61,48,172v84l69,66c102,96,139,168,142,275C97-1770-124-1587-355-1640z M-172-1694c77-24,145-85,189-171
		c24-48,27-67,28-145c0-112-18-150-106-226c-65-58-83-83-93-140l-6-37l-53,4c-28,1-55,3-58,3c-3,1-7,22-8,49c-2,67-15,106-35,110
		c-15,3-17-4-16-60c1-34,1-71,1-80c-1-16-14-18-120-18c-136,0-131-3-129,86c1,52-6,74-23,74s-25-40-19-91c8-58,3-68-36-72
		c-56-7-74,7-74,57c0,42-4,48-79,123c-63,63-83,90-94,129c-53,175,75,364,248,366c95,2,117-20,49-48c-35-15-45-40-20-50
		c17-7,68,19,121,61c63,49,91,64,147,79C-300-1676-224-1678-172-1694z M-175-2479c16-21,12-76-7-87c-22-14-522-11-536,3
		c-17,17-15,85,2,95c8,5,130,8,271,8C-207-2460-187-2462-175-2479z"/>
</g>
<g transform="translate(0.000000,200.000000) scale(0.100000,-0.100000)" class="st0">
	<path class="st1" d="M-73.6-2345.6c-5.7-5.3-10.2-12.2-10.2-15c0.4-14.6,13.4-58.9,28-91.8l16.2-37.4h-27.6
		c-39.4,0-42.6-3.7-39.8-41.4c6.1-84.9,60.5-164.1,138.9-202.7c53.6-26.4,73.5-28.8,229.5-27.2c131.2,1.6,136.9,1.6,164.1,11.4
		c94.6,32.9,160.4,112.9,173.4,212c5.7,40.6,0.8,47.9-29.6,47.9c-17.9,0-19.5,0.8-19.5,9.7c0,22.3-34.9,55.2-58.9,55.2
		c-9.7,0-17.1,3.7-27.2,13.8c-8.5,8.5-21.1,15.8-32.1,18.7c-14.6,3.7-19.5,7.7-26,19.5c-25.2,46.7-99.5,42.2-119.8-7.3
		c-2.8-6.5-10.2-13.8-16.7-16.2c-13.4-5.7-36.1-30.1-36.1-38.6c0-3.7-4.1-6.1-10.6-6.1c-11.8,0-24.4-5.7-37-17.5
		c-8.9-7.7-9.3-7.7-11.8-0.4c-8.9,25.6-15,35.3-30.1,52c-20.3,21.9-34.9,27.6-102.8,41c-28.8,5.7-63,15-76,20.3
		c-13.4,5.7-25.2,10.2-26.4,10.2C-62.6-2335.4-68.3-2339.9-73.6-2345.6z M368.3-2380.1c6.5-5.3,11.8-14.6,13.8-25.6
		c3.2-16.2,4.1-17.1,19.5-18.3c28.4-1.6,34.1-4.5,44.7-21.5c10.2-15.8,11-16.2,28.4-13.4c16.2,2.4,19.1,1.2,30.5-9.7
		c6.5-6.9,12.2-14.2,12.2-16.7c0-2.8-12.2-4.5-32.9-4.5c-31.7,0-32.9,0.4-45.5,13.8c-10.2,10.6-17.9,14.6-33.3,16.7
		c-11.4,2-27.2,5.7-36.1,8.5c-20.7,7.7-47.1,7.3-58.5-0.8c-4.9-3.2-12.6-13.4-17.1-22.3l-8.1-15.8h-42.6c-23.6,0-42.6,0.8-42.6,2
		c0,6.1,26,14.2,37.8,12.2c15.8-3.2,19.5,0.8,26.4,24.8c4.9,16.7,12.6,23.2,34.1,27.6c8.1,2,11.8,5.7,13.8,13.8
		C320-2375.2,345.2-2361.8,368.3-2380.1z M-28.5-2384.2c6.1-2.4,36.1-9.7,66.6-15.8c30.5-6.5,61.3-14.6,68.2-18.3
		c14.6-7.7,32.5-36.1,36.1-56.9c2-13.8,1.6-14.6-9.7-14.6c-8.9,0-17.5,5.7-36.1,23.6c-41,40.2-73.1,54-80.4,35.3
		c-3.7-9.7,1.2-16.7,21.1-29.6c10.6-6.9,22.7-16.2,26.8-20.7l7.7-8.5H35.3H-1.3l-14.6,31.7c-18.3,39-32.1,78-27.2,78
		C-41.1-2380.1-34.6-2382.1-28.5-2384.2z M358.6-2482c6.9-2.4,12.6-6.5,12.6-8.9c0-2-7.7-11.4-16.7-19.9
		c-12.6-12.2-15.8-17.1-12.2-20.7c8.5-8.5,38.6,15.8,45.9,37.8c1.6,5.3,24.8-1.2,26.8-7.7c4.5-13.8-62.1-61.3-95.4-67.8
		c-15-2.8-15-7.7-2.8,52.8C324.5-2476.8,330.1-2472.3,358.6-2482z M274.5-2553.5c-3.2-15.4-6.1-32.9-6.5-39.8
		c-0.4-12.2,0-12.2,22.3-13.4c40.6-2,108.4,29.2,136.9,63.4l14.6,17.1h62.5h62.5l-2.8-19.1c-1.6-11-7.7-32.1-14.2-47.1
		c-26-62.1-76-106.4-144.2-127.5c-21.5-6.5-39.8-7.3-162.5-7.3c-134.4,0-138.9,0.4-164.5,9.3c-81.2,29.2-134.4,90.6-149.9,172.6
		l-3.2,19.1h177.5H281L274.5-2553.5z"/>
</g>
<g transform="translate(0.000000,2000.000000) scale(0.100000,-0.100000)">
	<path d="M-465.1,16314c-0.1-0.1-1.6-0.4-3.3-0.6c-6.7-0.8-13-2.7-19.7-6c-12.4-6.2-21.6-17-26.5-31c-6.6-19.4-7.1-45.3-1.4-77.8
		c0.9-4.9,1.8-10.2,2.1-11.9c0.9-4.9,3.8-20,4.4-23.1c0.3-1.8,0.8-4.5,1-5.8c0.2-1.3,0.5-2.9,0.7-3.4c0.1-0.5,0.5-2.1,0.7-3.4
		c0.2-1.3,0.7-4.1,1.1-6.2c0.4-2,0.8-4.5,1-5.5c0.1-1,0.4-2.3,0.6-3.1c0.2-0.8,0.5-2.7,0.7-4.1c0.3-1.4,0.5-3.1,0.7-3.7
		c0.2-0.5,0.5-2.3,0.7-3.8c0.3-1.5,0.7-3.8,1-5.1c0.3-1.3,0.8-3.5,1-4.8c0.3-1.9,3.6-20,5.5-30.1c0.2-1,0.5-2.6,0.7-3.8
		c0.2-1.1,1.3-7,2.5-13c4-21.3,4.6-24.7,5.7-31.1c0.7-3.6,1.7-9,2.4-12.1c0.6-3.1,1-5.8,0.8-5.9c-0.1-0.2-1.5,1.2-3,3.1
		c-9.6,12.1-25.5,25-39.5,32.1c-10.4,5.2-25.5,10.3-33.6,11.3c-1.5,0.2-2.9,0.5-3.2,0.6c-0.8,0.4-12.4,1.3-18.2,1.3
		c-23.7,0.1-47.2-6.8-66.8-19.8c-3.8-2.5-7.1-4.7-7.3-5c-0.2-0.2-1.6-1.3-3.1-2.5c-4.7-3.4-16.2-15.4-21-21.9
		c-5.3-7-9.9-15-13.9-23.9l-2.8-6.2l-40.3-0.1c-22.1-0.1-40.5-0.1-40.7-0.1c-0.3-0.1-0.5-106.4-0.5-236.2v-236.2h378h378v236.2
		c0,224.4-0.1,236.2-1.2,236.2c-0.7,0-19,0.1-40.7,0.1l-39.5,0.1l-0.1,18.5c0,10.2-0.1,19.1-0.3,19.9c-0.1,0.8-0.4,3.1-0.6,5.2
		c-0.2,2.1-0.7,5.4-1.2,7.2c-0.4,1.8-0.8,3.8-1,4.4c-1.4,7-5.4,18.6-9,26.7c-2.3,5.2-10.9,22.2-13,26c-3.8,6.7-14.4,28-16.5,32.8
		c-1.2,2.8-2.7,7.5-3.4,10.3l-1.4,5.1l2.3,2.5c4,4.4,5.3,13.3,2.7,18.3c-1.4,2.7-5.5,5.9-8.7,6.7c-1.6,0.5-13.6,0.8-29.9,0.8
		c-30.1,0-32.1-0.2-36-4c-3.1-3.1-4.6-7.3-4.1-12.3c0.3-4.3,3.1-10,5.1-10.7c0.8-0.3,1-1,0.6-3.2c-1.3-8.1-7.1-21.4-19.1-43.5
		c-13-23.6-19.8-39.8-23.5-55c-2.6-10.5-3.1-16.9-3.1-38.7v-16.8h-30.3h-30.2l-7,6.9c-6.6,6.4-12.6,12-17.4,16.1
		c-5.1,4.4-17.1,13.3-24.3,18c-4.4,2.9-8.5,5.9-9.1,6.8c-2.2,3.4-1,9.2,2.5,12.6c3.9,3.7,9.6,4.3,14.9,1.6
		c5-2.5,17.6-10.6,28.3-17.9c5.6-3.9,10.8-7.5,11.6-8.1c0.8-0.5,2.4-1.8,3.6-2.7c1.2-1,3.3-2.6,4.7-3.8c1.5-1.1,4.8-3.8,7.3-5.9
		c2.5-2.2,4.9-4,5.2-4c1.4,0,1.3,22.1-0.2,29c-0.2,0.8-0.5,2.2-0.6,3.1c-1.1,6.8-7.2,22.2-10.8,27.3c-2.5,3.5-14.4,18.6-16.7,21.2
		c-0.8,1-2.9,3.2-4.5,5.1c-1.6,1.8-3.7,4.1-4.6,5.1c-9.6,10.7-27.1,27.1-37.7,35.1c-6.1,4.7-11.8,8.5-17.1,11.8
		c-6.1,3.6-8.1,5.5-8.5,8.5c-0.8,5.1,3.5,11.4,8.7,12.8c5.1,1.4,8,0.1,26.5-11.6c10.9-7,16.7-10.9,18.5-12.4
		c0.5-0.4,1.8-1.3,2.7-1.9c1.9-1.2,16-12.5,18.1-14.5c0.8-0.7,2.2-1.8,3.1-2.6l1.8-1.2l-0.9,3.9c-0.5,2.1-1,4.6-1.2,5.6
		c-0.5,2.5-3.8,17-4.6,19.8c-0.3,1.3-1.7,6.4-2.9,11.3c-6,22.8-14.6,47.5-22.6,64.9c-2.8,6.2-8.5,17.4-9.2,18.5
		c-0.3,0.4-1.7,2.8-3.1,5.5c-8.3,15.1-22.2,32.1-34.9,42.5c-11.9,9.8-26.9,16.8-40.3,19C-446.5,16313.7-464.7,16314.4-465.1,16314z
		 M-96.6,15911.8c0.3-0.1,0.3-305.7,0.1-318.3l-0.1-2.7l-301.8,0.1c-166,0-302,0.3-302.3,0.5c-0.5,0.5-0.5,319.2,0,320.1
		c0.3,0.4,108.5,0.6,302.1,0.5C-232.7,15912-96.8,15911.8-96.6,15911.8z"/>
	<path d="M-693.1,16175c-3.3-0.2-3.8-0.5-3.8-2.2c0-1.4,1-10.4,1.2-11.7c0.1-0.9,0.6-3,1-4.7c0.3-1.7,1.3-5.4,2.1-8.2
		c0.8-2.8,1.7-6,2-7.2c2.7-9.9,10.8-25.2,18-34.1c6.1-7.5,17.5-16.1,26.5-20c2.1-0.9,4.4-1.9,5.1-2.3c1.7-0.8,10.4-3.4,12.6-3.8
		c1-0.2,2.3-0.5,2.9-0.7c2.3-0.7,7.4-1.4,15.6-2.3c4.8-0.5,24.7-0.3,27.7,0.2c1.2,0.3,1.4,0.8,1.2,4c-0.3,4.9-1.4,12.1-3.1,18.7
		c-0.7,3-1.4,5.9-1.6,6.5c-1.7,7.9-10.1,25.9-15.7,33.8c-3.2,4.5-14.4,16.1-15.4,16.1c-0.3,0-1.4,0.8-2.5,1.7
		c-4.2,3.7-21.7,11.3-29.6,13c-0.6,0.1-2.5,0.5-4.2,1C-661.6,16174.6-680.7,16175.7-693.1,16175z"/>
	<path d="M-913.1,15741.6c-4.5-0.5-13.3-3-17.9-5.2c-17-8.1-28.5-22.5-32.5-40.7l-1.6-7.2v-164.5c0-90.5,0.3-166.4,0.5-168.6
		c0.3-2.2,0.6-5.5,0.8-7.4c1.2-11.3,4.3-24.9,8.4-37c8.1-23.7,21.9-47,37.9-63.8c4.1-4.3,20.8-22,25.1-26.7
		c5.3-5.7,7.9-8.4,19.6-20.8c5.3-5.6,10.4-11,11.3-12s5.5-5.8,10-10.7c4.6-4.8,9.6-10.1,11.2-11.8s6.8-7.2,11.6-12.3
		c4.8-5.1,9.7-10.3,10.9-11.6c1.2-1.3,4.6-4.9,7.5-7.9c2.9-3,9-9.6,13.7-14.6c4.7-5.1,9.8-10.4,11.3-12c1.5-1.6,6.8-7.1,11.6-12.3
		c4.9-5.2,9.6-10.3,10.6-11.3c1-1,5.7-6,10.6-11.2c4.9-5.2,10-10.6,11.3-12c1.3-1.4,6.7-7.1,12-12.7c5.3-5.5,10-10.6,10.7-11.2
		c4.2-4.2,10.5-15.1,12.9-22.3c3.2-9.8,3.8-17.4,3.8-45.7v-21h106.4h106.4l0.1,17.9c0.1,67.1,0,100.5-0.2,103.4
		c-0.2,1.9-0.5,5.6-0.8,8.2c-2.3,28.2-12.6,53.5-30.7,76c-2.5,3.1-21.1,22.2-41.3,42.5c-20.2,20.3-77,77.4-126.2,126.9
		c-49.2,49.5-91.4,91.3-93.6,93c-5.1,3.6-8.3,5.3-14.4,7.2c-4,1.4-6.2,1.6-13.6,1.6c-7.9,0-9.4-0.2-14.4-1.9
		c-14.3-5-24.7-15.2-29.9-29.2c-1.8-5.2-2.1-6.6-2.2-14.3c-0.1-10.8,0.8-14.7,5.1-23.2c2.4-4.8,4.4-7.2,14.2-17.8
		c4.4-4.6,8.7-9.3,9.7-10.3c2.4-2.6,16.3-17.5,18.9-20.2c2.5-2.7,14.7-15.7,18.7-20c1.6-1.7,4.3-4.6,6.2-6.5
		c1.8-1.8,7.8-8.3,13.4-14.4c15.7-16.8,19.2-20.6,27.8-29.8c4.4-4.6,9.6-10.2,11.5-12.2c18.7-19.9,31.7-43.7,35.1-64
		c1.6-9.2,2.4-20.6,1.6-21.9c-0.3-0.6-37.1-0.8-37.7-0.2c-0.2,0.2-0.5,2.6-0.8,5.4c-1,13.6-3.3,21.1-9.8,32.5
		c-2.4,4.2-8.5,12.8-10.3,14.7c-1.6,1.7-12,13.2-13.7,15c-0.8,0.9-4.3,4.7-7.7,8.5c-3.5,3.7-6.8,7.3-7.3,7.9
		c-1.4,1.5-11.8,13-15.9,17.4c-1.8,1.9-3.8,4.2-4.6,5.1c-1.4,1.6-10.9,12-14,15.3c-0.8,0.8-2.7,3-4.4,4.9
		c-2.7,3-13.2,14.6-17.8,19.5c-1,1-2.6,2.9-3.8,4.1c-1.1,1.3-5.4,6-9.6,10.5c-4.1,4.6-10.1,11.1-13.3,14.6c-3.2,3.6-6.6,7.2-7.5,8.3
		c-5.3,5.7-8.1,9-10.9,13.3c-2.7,4-6.2,10-6.5,11.3c-0.1,0.2-0.7,1.6-1.4,3.1c-1.8,4.1-4.3,12.7-4.8,16.9c-0.3,2-0.6,3.8-0.8,4.1
		c-0.4,0.6-0.3,15.7,0.1,17.6c0.1,1,0.5,2.9,0.7,4.4c1.1,8.7,7.1,23.5,12.9,31.6c7.6,10.8,18.4,20.4,30.2,26.8
		c3,1.6,5.6,3.1,5.7,3.1c0.5,0.4,0.3,231-0.2,235.1c-0.3,2.2-1,5.7-1.4,7.8c-5.4,22.7-24.5,40.2-48.2,44.2
		C-900.2,15741.8-909.6,15742-913.1,15741.6z"/>
	<path d="M102.8,15741.7c-0.1-0.1-1.7-0.4-3.5-0.6c-7.7-0.9-18.7-5.5-25.7-10.7c-7.1-5.3-12.2-11.1-17.2-19.6
		c-2.7-4.5-5.7-14.4-6.4-20.8c-0.3-3.1-0.7-226-0.3-234.6c0.1-0.8,0.6-1.6,1.4-1.9c2.9-0.9,14.4-8.3,19.2-12.4
		c9.4-7.9,16.4-16.9,21.7-27.8c3.8-7.9,5.9-15,7.4-25.3c0.3-2.7,0.4-14.7,0-16.5c-0.1-0.8-0.5-2.9-0.7-4.8
		c-1.6-11.8-9.3-28.6-17.4-37.8c-1.2-1.4-8.5-9.4-13.8-15.2c-2-2.2-12.3-13.5-13.3-14.6c-1.4-1.5-15.1-16.5-17.9-19.5
		c-1.6-1.7-3.4-3.7-4.1-4.5c-1.5-1.8-7.7-8.5-32-35.1c-2.3-2.5-5.3-5.8-6.8-7.5c-1.5-1.6-4.4-4.9-6.5-7.1s-4-4.4-4.4-4.9
		c-0.3-0.4-3.3-3.6-6.5-7.1c-3.2-3.6-6.4-7-7.2-7.9c-0.8-0.8-4-4.4-7.2-7.9c-8.3-9-8.2-8.9-16.3-21.1c-2.1-3.1-6-12.1-7.4-16.8
		c-1.7-5.7-2.1-8.4-2.6-15.6c-0.1-3-0.5-5.6-0.7-5.8c-0.1-0.2-8.7-0.3-19.1-0.3l-18.8-0.1l-0.1,1.7c-0.1,1-0.1,1.8-0.1,2
		c0.5,10.5,2.3,23.4,3.5,25.9c0.3,0.6,1,2.7,1.4,4.5c3.3,13.8,17.8,37.4,31.9,51.9c1.2,1.3,13.4,14.2,20.2,21.5
		c3.5,3.7,9.7,10.4,15.3,16.4c2.3,2.5,8,8.5,12.7,13.6c4.7,5.1,9.7,10.5,11.1,12c3.4,3.7,15.4,16.5,17.5,18.8
		c0.9,1,5.2,5.6,9.6,10.3s9,9.6,10.3,11c1.3,1.4,5.9,6.4,10.3,10.9c9.4,10,11.8,13.1,14.7,19.5c10.9,23.2,0.4,51.6-23,62.4
		c-8.5,4-20.8,5.2-29.9,3.1c-5.4-1.3-13.4-4.9-17.3-7.9c-2.7-2-36.1-35.5-194.3-194.2c-33.4-33.6-63.3-64-66.2-67.5
		c-12.6-15-22.4-33.6-27-51.3c-2.9-11.3-4.1-18.9-5.3-33.5c-0.1-2.1-0.3-26.4-0.2-54c0-27.6,0.1-54.1,0-59v-8.7l106.4,0.1l106.4,0.2
		l0.1,24.6c0.1,13.5,0.3,25.6,0.5,26.7c0.2,1.2,0.6,3.4,0.8,5.1c0.5,4.2,2.7,11.3,4.9,16.1c3.4,7.8,7.8,13.6,18.8,25
		c4,4,18.5,19.5,24.5,25.8c4.9,5.2,19.8,21.1,24.7,26.3c2.9,3.1,6.2,6.6,7.5,7.9c2.1,2.2,14.6,15.5,26.4,28c2.7,2.8,6.2,6.5,7.8,8.2
		c1.6,1.7,6.3,6.7,10.5,11.2c4.2,4.4,9,9.6,10.7,11.3c2.7,2.9,14.3,15.1,21.9,23.2c5.2,5.5,13.1,13.9,18.7,19.8
		c7.8,8.2,15,15.9,25.7,27.3c5.1,5.5,10.9,11.6,12.9,13.7c5.9,6.2,13.9,16.9,20.4,27.1c2.6,4.1,10,18.5,12.1,23.7
		c7,17,11.5,34,13.1,49.4c0.2,1.9,0.5,4.2,0.8,5.1s0.5,76.6,0.5,168.1c0.1,181.4,0.3,171.9-3.8,182.5c-2.9,7.5-6.6,13.3-11.6,18.7
		c-11.6,12.4-25.8,18.9-42.1,19.2C106.2,15741.8,102.9,15741.8,102.8,15741.7z"/>
</g>
</svg>
